<svg id="Layer_1" data-name="Layer 1" xmlns="http://www.w3.org/2000/svg" viewBox="0 0 699.98 112.86"><defs><style>.cls-1{fill:#bec0c2;}.cls-2{fill:#739dd2;}</style></defs><title>cs_landscape</title><path class="cls-1" d="M106.64,316.41c0-12.12,9.06-21.18,20.81-21.18,7.1,0,12.12,2.33,15.91,6.49l-5,4.53a14.26,14.26,0,0,0-10.89-4.53c-7.83,0-13,6.37-13,14.69s5.14,14.57,13,14.57a15.4,15.4,0,0,0,11.87-5l5,4.41c-3.79,4.53-9.3,7.1-16.89,7.1C115.7,337.46,106.64,328.4,106.64,316.41Z" transform="translate(-46.01 -249.57)"/><path class="cls-1" d="M152.67,316.41c0-12.12,9.43-21.18,21.42-21.18a21.12,21.12,0,1,1,0,42.23C162.09,337.46,152.67,328.4,152.67,316.41Zm35,0c0-8.45-5.51-14.81-13.59-14.81S160.5,308,160.5,316.41s5.51,14.69,13.59,14.69S187.68,324.73,187.68,316.41Z" transform="translate(-46.01 -249.57)"/><path class="cls-1" d="M208.12,249.57h7.59v86.91h-7.59Z" transform="translate(-46.01 -249.57)"/><path class="cls-1" d="M231.38,249.57H239v86.91h-7.59Z" transform="translate(-46.01 -249.57)"/><path class="cls-1" d="M273.61,331.09c6.24,0,9.92-2.2,12.61-5.26l4.65,4.53c-3.67,4.41-9.18,7.1-17.14,7.1-13.1,0-22-9.06-22-21.05a20.88,20.88,0,0,1,21.18-21.18c12.85,0,20.69,10,20.44,23.87H259.53C260.63,326.57,265.77,331.09,273.61,331.09Zm11.87-18.24c-1-6.37-5-11.26-12.61-11.26-7,0-11.87,4.41-13.1,11.26Z" transform="translate(-46.01 -249.57)"/><path class="cls-1" d="M303.11,316.41c0-12.12,9.06-21.18,20.81-21.18,7.1,0,12.12,2.33,15.91,6.49l-5,4.53a14.26,14.26,0,0,0-10.89-4.53c-7.83,0-13,6.37-13,14.69s5.14,14.57,13,14.57a15.4,15.4,0,0,0,11.87-5l5,4.41c-3.79,4.53-9.3,7.1-16.89,7.1C312.17,337.46,303.11,328.4,303.11,316.41Z" transform="translate(-46.01 -249.57)"/><path class="cls-1" d="M349.25,302.57v-6.37h5.26V271.11H362v25.09h10v6.37H362v23c0,3.67,1.35,5.39,4.28,5.39a7.18,7.18,0,0,0,4.41-1.71l3.18,5.26a12.31,12.31,0,0,1-8.45,2.94c-6.61,0-10.89-3.55-10.89-11.51V302.57Z" transform="translate(-46.01 -249.57)"/><path class="cls-1" d="M383.9,276.38a5.14,5.14,0,1,1,5.14,5.14A5.17,5.17,0,0,1,383.9,276.38Zm1.35,19.83h7.59v40.27h-7.59Z" transform="translate(-46.01 -249.57)"/><path class="cls-1" d="M405.44,316.41c0-12.12,9.43-21.18,21.42-21.18a21.12,21.12,0,1,1,0,42.23C414.87,337.46,405.44,328.4,405.44,316.41Zm35,0c0-8.45-5.51-14.81-13.59-14.81s-13.59,6.37-13.59,14.81,5.51,14.69,13.59,14.69S440.45,324.73,440.45,316.41Z" transform="translate(-46.01 -249.57)"/><path class="cls-1" d="M460.53,296.21H468v6.49c2.57-4.9,7.71-7.47,13.83-7.47,8.81,0,15.42,5.63,15.42,16.53v24.73h-7.47v-24c0-7.1-3.43-10.53-9.79-10.53-7.22,0-12,4.53-12,12.24v22.28h-7.47Z" transform="translate(-46.01 -249.57)"/><path class="cls-2" d="M508,328.4l5.38-3.79a13.24,13.24,0,0,0,11.87,6.49c5.14,0,8.08-2.08,8.08-5.39,0-3.55-2.81-5-9.79-7-8-2.2-12.73-5.26-12.73-12.36,0-6.61,5.26-11.14,13.22-11.14,6.37,0,10.65,2.33,13.83,6.49l-5,4.16a10.12,10.12,0,0,0-8.69-4.29c-4,0-6.37,2-6.37,4.53,0,3.55,2.57,4.53,8.81,6.12,8.57,2.2,14,5.75,14,13.1,0,7.59-5.75,12.12-15.3,12.12C517.57,337.46,511.69,334,508,328.4Z" transform="translate(-46.01 -249.57)"/><path class="cls-2" d="M553.07,296.21h7.47v6.86c2.81-5,7.83-7.83,14.57-7.83,11.26,0,19.83,9.06,19.83,21.18s-8.57,21.05-19.83,21.05c-6.73,0-11.75-2.82-14.57-7.83v32.81h-7.47Zm34.15,20.2c0-8.57-5.51-14.57-13.59-14.57s-13.34,6-13.34,14.57,5.39,14.44,13.34,14.44S587.22,324.85,587.22,316.41Z" transform="translate(-46.01 -249.57)"/><path class="cls-2" d="M604.72,316.41c0-12.12,8.45-21.18,19.59-21.18,6.61,0,11.38,2.82,14.2,7.83v-6.86H646v40.27h-7.47v-6.86c-2.82,5-7.59,7.83-14.2,7.83C613.17,337.46,604.72,328.4,604.72,316.41Zm34,0c0-8.57-5.14-14.57-13-14.57s-13.22,6-13.22,14.57,5.26,14.44,13.22,14.44S638.75,324.85,638.75,316.41Z" transform="translate(-46.01 -249.57)"/><path class="cls-2" d="M658.34,316.41c0-12.12,9.06-21.18,20.81-21.18,7.1,0,12.12,2.33,15.91,6.49l-5,4.53a14.26,14.26,0,0,0-10.89-4.53c-7.83,0-13,6.37-13,14.69s5.14,14.57,13,14.57A15.4,15.4,0,0,0,691,326l5,4.41c-3.79,4.53-9.3,7.1-16.89,7.1C667.4,337.46,658.34,328.4,658.34,316.41Z" transform="translate(-46.01 -249.57)"/><path class="cls-2" d="M726.28,331.09c6.24,0,9.92-2.2,12.61-5.26l4.65,4.53c-3.67,4.41-9.18,7.1-17.14,7.1-13.1,0-22-9.06-22-21.05a20.88,20.88,0,0,1,21.18-21.18c12.85,0,20.69,10,20.44,23.87H712.2C713.3,326.57,718.44,331.09,726.28,331.09Zm11.87-18.24c-1-6.37-5-11.26-12.61-11.26-7,0-11.87,4.41-13.1,11.26Z" transform="translate(-46.01 -249.57)"/><rect class="cls-2" x="16.4" y="44.96" width="10.3" height="10.3" rx="1.47" ry="1.47"/><rect class="cls-1" x="16.4" y="61.55" width="10.3" height="10.3" rx="1.47" ry="1.47"/><rect class="cls-2" x="32.61" y="61.55" width="10.3" height="10.3" rx="1.47" ry="1.47"/><rect class="cls-1" y="61.55" width="10.3" height="10.3" rx="1.47" ry="1.47"/><rect class="cls-1" x="16.4" y="77.57" width="10.3" height="10.3" rx="1.47" ry="1.47"/></svg>