<svg id="Layer_1" data-name="Layer 1" xmlns="http://www.w3.org/2000/svg" viewBox="0 0 272.86 44" width="272.86px" height="44px"><defs><style>.cls-1{fill:#bec0c2;}.cls-2{fill:#739dd2;}</style></defs><title>collectionspace2</title><path class="cls-1" d="M23.63,26.05a8,8,0,0,1,8.11-8.25A7.89,7.89,0,0,1,38,20.33l-2,1.76a5.58,5.58,0,0,0-4.25-1.76c-3.05,0-5.06,2.48-5.06,5.72s2,5.68,5.06,5.68a6,6,0,0,0,4.63-1.95l1.95,1.72a8.1,8.1,0,0,1-6.59,2.77A8,8,0,0,1,23.63,26.05Z"/><path class="cls-1" d="M41.58,26.05a8.38,8.38,0,1,1,8.7,8.21h-.36A8.14,8.14,0,0,1,41.58,26.05Zm13.64,0c0-3.29-2.15-5.77-5.3-5.77s-5.29,2.5-5.29,5.77,2.15,5.73,5.29,5.73,5.3-2.48,5.3-5.73Z"/><path class="cls-1" d="M63.19,0h3V33.88h-3Z"/><path class="cls-1" d="M72.26,0h3V33.88h-3Z"/><path class="cls-1" d="M88.72,31.78a6,6,0,0,0,4.91-2.05l1.82,1.76a8.2,8.2,0,0,1-6.69,2.77c-5.1,0-8.57-3.53-8.57-8.21a8.13,8.13,0,0,1,8-8.25h.23c5,0,8.07,3.9,8,9.3H83.23A5.16,5.16,0,0,0,88.72,31.78Zm4.62-7.11c-.39-2.49-1.94-4.39-4.91-4.39a5,5,0,0,0-5.11,4.39Z"/><path class="cls-1" d="M100.22,26.05a8,8,0,0,1,8.11-8.25,7.86,7.86,0,0,1,6.2,2.53l-2,1.76a5.56,5.56,0,0,0-4.24-1.76c-3.06,0-5.07,2.48-5.07,5.72s2,5.68,5.07,5.68A6,6,0,0,0,113,29.78l2,1.72a8.44,8.44,0,0,1-14.69-5.45Z"/><path class="cls-1" d="M118.2,20.66V18.18h2V8.4h2.92v9.78h3.9v2.48h-3.9v9c0,1.43.53,2.11,1.67,2.11a2.86,2.86,0,0,0,1.72-.67l1.24,2.05a4.84,4.84,0,0,1-3.3,1.15c-2.57,0-4.24-1.39-4.24-4.49V20.66Z"/><path class="cls-1" d="M131.71,10.45a2,2,0,1,1,2,2A2,2,0,0,1,131.71,10.45Zm.52,7.73h3v15.7h-3Z"/><path class="cls-1" d="M140.1,26.05a8.38,8.38,0,1,1,8.71,8.21h-.36A8.15,8.15,0,0,1,140.1,26.05Zm13.65,0c0-3.29-2.15-5.77-5.3-5.77s-5.3,2.48-5.3,5.77,2.15,5.73,5.3,5.73,5.3-2.48,5.3-5.73Z"/><path class="cls-1" d="M161.58,18.18h2.91v2.53a5.77,5.77,0,0,1,5.39-2.91c3.43,0,6,2.19,6,6.44v9.64H173V24.53c0-2.77-1.34-4.11-3.82-4.11a4.39,4.39,0,0,0-4.67,4.77v8.69h-2.92Z"/><path class="cls-2" d="M180.08,30.73l2.1-1.48a5.15,5.15,0,0,0,4.63,2.53c2,0,3.14-.81,3.14-2.1s-1.09-1.95-3.81-2.73c-3.12-.86-5-2.05-5-4.82,0-2.57,2-4.34,5.15-4.34a6.29,6.29,0,0,1,5.39,2.53l-1.95,1.62a3.93,3.93,0,0,0-3.39-1.67c-1.55,0-2.48.78-2.48,1.77,0,1.38,1,1.76,3.44,2.38,3.34.86,5.45,2.24,5.45,5.11s-2.24,4.72-6,4.72A7.72,7.72,0,0,1,180.08,30.73Z"/><path class="cls-2" d="M197.65,18.18h2.91v2.67a6.14,6.14,0,0,1,5.68-3.05c4.39,0,7.73,3.53,7.73,8.26s-3.34,8.2-7.73,8.2a6.13,6.13,0,0,1-5.68-3V44h-2.91ZM211,26.05c0-3.34-2.15-5.68-5.3-5.68s-5.2,2.34-5.2,5.68,2.1,5.63,5.2,5.63,5.3-2.34,5.3-5.63Z"/><path class="cls-2" d="M217.78,26.05c0-4.72,3.3-8.25,7.64-8.25A5.94,5.94,0,0,1,231,20.85V18.18h2.92V33.87H231V31.2a5.94,5.94,0,0,1-5.53,3.05C221.08,34.26,217.78,30.73,217.78,26.05Zm13.26,0c0-3.34-2-5.68-5.07-5.68s-5.16,2.34-5.16,5.68,2.06,5.63,5.16,5.63,5.08-2.34,5.08-5.63Z"/><path class="cls-2" d="M238.68,26.05a8,8,0,0,1,8.11-8.25A7.89,7.89,0,0,1,253,20.33l-1.95,1.76a5.58,5.58,0,0,0-4.25-1.76c-3.05,0-5.07,2.48-5.07,5.72s2,5.68,5.07,5.68a6,6,0,0,0,4.61-1.94l2,1.72a8.43,8.43,0,0,1-14.68-5.46Z"/><path class="cls-2" d="M265.17,31.78a6,6,0,0,0,4.91-2.05l1.81,1.76a8.17,8.17,0,0,1-6.68,2.77c-5.1,0-8.57-3.53-8.57-8.21a8.13,8.13,0,0,1,8-8.25h.23c5,0,8.07,3.9,8,9.3H259.68A5.16,5.16,0,0,0,265.17,31.78Zm4.62-7.11c-.39-2.49-2-4.39-4.91-4.39a5,5,0,0,0-5.11,4.39Z"/><rect class="cls-2" x="6.39" y="17.53" width="4.01" height="4.01" rx="0.57"/><rect class="cls-1" x="6.39" y="23.99" width="4.01" height="4.01" rx="0.57"/><rect class="cls-2" x="12.71" y="23.99" width="4.01" height="4.01" rx="0.57"/><rect class="cls-1" y="23.99" width="4.01" height="4.01" rx="0.57"/><rect class="cls-1" x="6.39" y="30.24" width="4.01" height="4.01" rx="0.57"/></svg>