<svg id="Layer_1" data-name="Layer 1" xmlns="http://www.w3.org/2000/svg" viewBox="0 0 451.24 168.07"><defs><style>.cls-1{fill:#3D5CA9;}.cls-2{fill:#76777B;}</style></defs><title>cs_stacked</title><path class="cls-1" d="M231,356l5.39-3.79a13.23,13.23,0,0,0,11.87,6.49c5.14,0,8.08-2.08,8.08-5.39,0-3.55-2.82-5-9.79-7-8-2.2-12.73-5.26-12.73-12.36,0-6.61,5.26-11.14,13.22-11.14,6.37,0,10.65,2.33,13.83,6.49l-5,4.16a10.12,10.12,0,0,0-8.69-4.29c-4,0-6.37,2-6.37,4.53,0,3.55,2.57,4.53,8.81,6.12,8.57,2.2,14,5.75,14,13.1,0,7.59-5.75,12.12-15.3,12.12C240.56,365.06,234.68,361.63,231,356Z" transform="translate(-170.38 -221.97)"/><path class="cls-1" d="M276.06,323.81h7.47v6.86c2.82-5,7.83-7.84,14.57-7.84,11.26,0,19.83,9.06,19.83,21.18s-8.57,21.05-19.83,21.05c-6.73,0-11.75-2.81-14.57-7.83V390h-7.47ZM310.21,344c0-8.57-5.51-14.57-13.59-14.57s-13.34,6-13.34,14.57,5.39,14.45,13.34,14.45S310.21,352.46,310.21,344Z" transform="translate(-170.38 -221.97)"/><path class="cls-1" d="M327.71,344c0-12.12,8.45-21.18,19.59-21.18,6.61,0,11.38,2.82,14.2,7.84v-6.86H369v40.27H361.5v-6.86c-2.82,5-7.59,7.83-14.2,7.83C336.16,365.06,327.71,356,327.71,344Zm34,0c0-8.57-5.14-14.57-13-14.57s-13.22,6-13.22,14.57,5.26,14.45,13.22,14.45S361.74,352.46,361.74,344Z" transform="translate(-170.38 -221.97)"/><path class="cls-1" d="M381.33,344c0-12.12,9.06-21.18,20.81-21.18,7.1,0,12.12,2.33,15.91,6.49l-5,4.53a14.26,14.26,0,0,0-10.89-4.53c-7.83,0-13,6.37-13,14.69s5.14,14.57,13,14.57a15.41,15.41,0,0,0,11.87-5l5,4.41c-3.79,4.53-9.3,7.1-16.89,7.1C390.39,365.06,381.33,356,381.33,344Z" transform="translate(-170.38 -221.97)"/><path class="cls-1" d="M449.27,358.7c6.24,0,9.91-2.2,12.61-5.26l4.65,4.53c-3.67,4.41-9.18,7.1-17.14,7.1-13.1,0-22-9.06-22-21.05a20.88,20.88,0,0,1,21.18-21.18c12.85,0,20.69,10,20.44,23.87H435.19C436.29,354.17,441.43,358.7,449.27,358.7Zm11.87-18.24c-1-6.37-5-11.26-12.61-11.26-7,0-11.87,4.41-13.1,11.26Z" transform="translate(-170.38 -221.97)"/><path class="cls-2" d="M231,288.8c0-12.12,9.06-21.18,20.81-21.18,7.1,0,12.12,2.33,15.91,6.49l-5,4.53a14.26,14.26,0,0,0-10.89-4.53c-7.83,0-13,6.37-13,14.69s5.14,14.57,13,14.57a15.4,15.4,0,0,0,11.87-5l5,4.41c-3.79,4.53-9.3,7.1-16.89,7.1C240.07,309.86,231,300.8,231,288.8Z" transform="translate(-170.38 -221.97)"/><path class="cls-2" d="M277,288.8c0-12.12,9.43-21.18,21.42-21.18a21.12,21.12,0,1,1,0,42.23C286.46,309.86,277,300.8,277,288.8Zm35,0c0-8.45-5.51-14.81-13.59-14.81s-13.59,6.37-13.59,14.81,5.51,14.69,13.59,14.69S312,297.13,312,288.8Z" transform="translate(-170.38 -221.97)"/><path class="cls-2" d="M332.49,222h7.59v86.91h-7.59Z" transform="translate(-170.38 -221.97)"/><path class="cls-2" d="M355.75,222h7.59v86.91h-7.59Z" transform="translate(-170.38 -221.97)"/><path class="cls-2" d="M398,303.49c6.24,0,9.92-2.2,12.61-5.26l4.65,4.53c-3.67,4.41-9.18,7.1-17.14,7.1-13.1,0-22-9.06-22-21.06a20.88,20.88,0,0,1,21.18-21.18c12.85,0,20.69,10,20.44,23.87H383.9C385,299,390.14,303.49,398,303.49Zm11.87-18.24c-1-6.37-5-11.26-12.61-11.26-7,0-11.87,4.41-13.1,11.26Z" transform="translate(-170.38 -221.97)"/><path class="cls-2" d="M427.48,288.8c0-12.12,9.06-21.18,20.81-21.18,7.1,0,12.12,2.33,15.91,6.49l-5,4.53a14.26,14.26,0,0,0-10.89-4.53c-7.84,0-13,6.37-13,14.69s5.14,14.57,13,14.57a15.4,15.4,0,0,0,11.87-5l5,4.41c-3.79,4.53-9.3,7.1-16.89,7.1C436.54,309.86,427.48,300.8,427.48,288.8Z" transform="translate(-170.38 -221.97)"/><path class="cls-2" d="M473.63,275V268.6h5.26V243.51h7.47V268.6h10V275h-10v23c0,3.67,1.35,5.39,4.28,5.39a7.18,7.18,0,0,0,4.41-1.71l3.18,5.26a12.3,12.3,0,0,1-8.45,2.94c-6.61,0-10.89-3.55-10.89-11.51V275Z" transform="translate(-170.38 -221.97)"/><path class="cls-2" d="M508.27,248.77a5.14,5.14,0,1,1,5.14,5.14A5.17,5.17,0,0,1,508.27,248.77Zm1.35,19.83h7.59v40.27h-7.59Z" transform="translate(-170.38 -221.97)"/><path class="cls-2" d="M529.81,288.8c0-12.12,9.43-21.18,21.42-21.18a21.12,21.12,0,1,1,0,42.23C539.24,309.86,529.81,300.8,529.81,288.8Zm35,0c0-8.45-5.51-14.81-13.59-14.81s-13.59,6.37-13.59,14.81,5.51,14.69,13.59,14.69S564.82,297.13,564.82,288.8Z" transform="translate(-170.38 -221.97)"/><path class="cls-2" d="M584.9,268.6h7.47v6.49c2.57-4.9,7.71-7.47,13.83-7.47,8.81,0,15.42,5.63,15.42,16.53v24.73h-7.47v-24c0-7.1-3.43-10.53-9.79-10.53-7.22,0-12,4.53-12,12.24v22.28H584.9Z" transform="translate(-170.38 -221.97)"/><rect class="cls-1" x="16.4" y="44.96" width="10.3" height="10.3" rx="1.47" ry="1.47"/><rect class="cls-2" x="16.4" y="61.55" width="10.3" height="10.3" rx="1.47" ry="1.47"/><rect class="cls-1" x="32.61" y="61.55" width="10.3" height="10.3" rx="1.47" ry="1.47"/><rect class="cls-2" y="61.55" width="10.3" height="10.3" rx="1.47" ry="1.47"/><rect class="cls-2" x="16.4" y="77.57" width="10.3" height="10.3" rx="1.47" ry="1.47"/></svg>
